<?xml version="1.0" encoding="utf-8"?>
<!-- Generator: Adobe Illustrator 22.0.1, SVG Export Plug-In . SVG Version: 6.00 Build 0)  -->
<svg version="1.1" id="Layer_1" xmlns="http://www.w3.org/2000/svg" xmlns:xlink="http://www.w3.org/1999/xlink" x="0px" y="0px"
	 viewBox="0 0 254.7 131.2" style="enable-background:new 0 0 254.7 131.2;" xml:space="preserve">
<style type="text/css">
	.st0{fill:#E86C3C;}
	.st1{fill:#2670CA;}
</style>
<g>
	<g>
		<g>
			<path class="st0" d="M167,43.7c-19.4,0-37.6,4.9-53.4,13.6h106.9C204.6,48.6,186.4,43.7,167,43.7z"/>
		</g>
		<g>
			<path class="st1" d="M60.9,70.9c19.4,0,37.6-4.9,53.4-13.6H7.4C23.3,65.9,41.5,70.9,60.9,70.9z"/>
		</g>
		<g>
			<path class="st1" d="M194.7,60.3c-19.4,0-37.6,4.9-53.4,13.6h106.9C232.3,65.2,214.1,60.3,194.7,60.3z"/>
		</g>
		<g>
			<path class="st0" d="M88.6,87.5c19.4,0,37.6-4.9,53.4-13.6H35.1C51,82.5,69.2,87.5,88.6,87.5z"/>
		</g>
	</g>
</g>
</svg>
